{"title":"Futurama S06E08 (PSP, iPod, Zune)","uid":5744521,"size":76141120,"categoryP":"video","categoryS":"handheld","magnet":"?xt=urn:btih:a1c8822fb37cdd4f0502c5161b0fafba2cdd5ad5&amp;dn=Futurama+S06E08+%28PSP%2C+iPod%2C+Zune%29&amp;tr=udp%3A%2F%2Ftracker.openbittorrent.com%3A80&amp;tr=udp%3A%2F%2Fopen.demonii.com%3A1337&amp;tr=udp%3A%2F%2Ftracker.coppersurfer.tk%3A6969&amp;tr=udp%3A%2F%2Fexodus.desync.com%3A6969","seeders":0,"leechers":0,"uploader":"The_Day_Walker","files":-1,"time":1281154390,"description":"Source: Futurama.S06E08.720p.HDTV.x264-ORENJI \n\nI will do this show and other stuff while OOO is gone. \n\nEncoded for PSP, iPod, and Zune.\n\nEnjoy and please help seed! (^_^) \n\nVideo Specs:\n\nFormat                           : MPEG-4\nCodec ID                         : M4V \nFile size                        : 72.6 MiB\nDuration                         : 21mn 0s\nOverall bit rate                 : 483 Kbps\nMovie name                       : That Darn Katz\nEncoded date                     : 2010\nWriting application              : Lavf52.33.0\n\nVideo\nID                               : 1\nFormat                           : AVC\nFormat/Info                      : Advanced Video Codec\nFormat profile                   : &lt;a class=&quot;__cf_email__&quot; href=&quot;/cdn-cgi/l/email-protection&quot; data-cfemail=&quot;95d7f4e6f0f9fcfbf0d5d9a4bba6&quot;&gt;[email&amp;#160;protected]&lt;/a&gt;&lt;script data-cfhash='f9e31' type=&quot;text/javascript&quot;&gt;\n/* &lt;![CDATA[ */!function(){try{var t=&quot;currentScript&quot;in document?document.currentScript:function(){for(var t=document.getElementsByTagName(&quot;script&quot;),e=t.length;e--;)if(t[e].getAttribute(&quot;data-cfhash&quot;))return t[e]}();if(t&amp;&amp;t.previousSibling){var e,r,n,i,c=t.previousSibling,a=c.getAttribute(&quot;data-cfemail&quot;);if(a){for(e=&quot;&quot;,r=parseInt(a.substr(0,2),16),n=2;a.length-n;n+=2)i=parseInt(a.substr(n,2),16)^r,e+=String.fromCharCode(i);e=document.createTextNode(e),c.parentNode.replaceChild(e,c)}t.parentNode.removeChild(t);}}catch(u){}}()/* ]]&gt; */&lt;/script&gt;\nFormat settings, CABAC           : No\nFormat settings, ReFrames        : 1 frame\nCodec ID                         : avc1\nCodec ID/Info                    : Advanced Video Coding\nDuration                         : 21mn 0s\nBit rate mode                    : Variable\nBit rate                         : 350 Kbps\nWidth                            : 320 pixels\nHeight                           : 240 pixels\nDisplay aspect ratio             : 4:3\nFrame rate mode                  : Constant\nFrame rate                       : 29.970 fps\nColor space                      : YUV\nChroma subsampling               : 4:2:0\nBit depth                        : 8 bits\nScan type                        : Progressive\nBits/(Pixel*Frame)               : 0.152\nStream size                      : 52.6 MiB (73%)\n\nAudio\nID                               : 2\nFormat                           : AAC\nFormat/Info                      : Advanced Audio Codec\nFormat version                   : Version 4\nFormat profile                   : LC\nFormat settings, SBR             : No\nCodec ID                         : 40\nDuration                         : 21mn 0s\nBit rate mode                    : Variable\nBit rate                         : 128 Kbps\nChannel(s)                       : 2 channels\nChannel positions                : Front: L R\nSampling rate                    : 48.0 KHz\nStream size                      : 19.2 MiB (26%)\n\n","torrent":{"xt":"urn:btih:a1c8822fb37cdd4f0502c5161b0fafba2cdd5ad5","amp;dn":"Futurama+S06E08+%28PSP%2C+iPod%2C+Zune%29","amp;tr":["udp%3A%2F%2Ftracker.openbittorrent.com%3A80","udp%3A%2F%2Fopen.demonii.com%3A1337","udp%3A%2F%2Ftracker.coppersurfer.tk%3A6969","udp%3A%2F%2Fexodus.desync.com%3A6969"],"infoHash":"a1c8822fb37cdd4f0502c5161b0fafba2cdd5ad5","infoHashBuffer":{"type":"Buffer","data":[161,200,130,47,179,124,221,79,5,2,197,22,27,15,175,186,44,221,90,213]},"announce":[],"urlList":[]}}